<?xml version="1.0" encoding="utf-8"?>
<svg width="425.46603px" height="425.46704px" viewBox="0 0 425.46603 425.46704" version="1.1" xmlns:xlink="http://www.w3.org/1999/xlink" xmlns="http://www.w3.org/2000/svg">
  <defs>
    <path d="M0 0L425.466 0L425.466 425.467L0 425.467L0 0Z" id="path_1" />
    <clipPath id="mask_1">
      <use xlink:href="#path_1" />
    </clipPath>
  </defs>
  <g id="url-link-svgrepo-com">
    <path d="M0 0L425.466 0L425.466 425.467L0 425.467L0 0Z" id="Background" fill="none" fill-rule="evenodd" stroke="none" />
    <g clip-path="url(#mask_1)">
      <g id="Group" transform="translate(-0.00048828125 0.0015106201)">
        <g id="Group">
          <g id="Group">
            <path d="M318.15 230.193L396.084 152.257C427.978 120.365 427.978 68.4745 396.08 36.5825L383.42 23.9225C351.527 -7.9735 299.64 -7.9735 267.746 23.9185L189.809 101.852C172.221 119.44 164.352 143.117 166.163 166.163C143.118 164.35 119.441 172.219 101.855 189.811L23.9205 267.746C-7.9735 299.635 -7.9735 351.525 23.9205 383.421L36.5845 396.082C68.4775 427.975 120.367 427.975 152.258 396.082L230.193 318.146C247.785 300.556 255.652 276.88 253.84 253.837C276.884 255.652 300.56 247.781 318.15 230.193L318.15 230.193ZM202.654 290.603L124.718 368.542C108.012 385.245 80.8285 385.245 64.1275 368.542L51.4615 355.875C34.7565 339.174 34.7585 311.99 51.4615 295.281L129.398 217.35C143.538 203.208 165.176 201.044 181.624 210.833L149.322 243.14C141.715 250.744 141.715 263.078 149.322 270.681C156.926 278.288 169.258 278.288 176.863 270.681L209.169 238.378C218.96 254.826 216.796 276.467 202.654 290.603L202.654 290.603ZM238.383 209.167L270.682 176.862C278.289 169.259 278.289 156.926 270.682 149.324C263.078 141.714 250.745 141.714 243.141 149.32L210.838 181.623C201.047 165.177 203.211 143.536 217.352 129.397L295.287 51.4615C311.994 34.7545 339.177 34.7545 355.88 51.4615L368.544 64.1255C385.25 80.8305 385.25 108.012 368.544 124.717L290.609 202.654C276.469 216.796 254.829 218.957 238.383 209.167L238.383 209.167Z" id="Shape" fill="#FFFFFF" fill-rule="evenodd" stroke="none" />
          </g>
        </g>
      </g>
    </g>
  </g>
</svg>